<svg width="2017" height="599" viewBox="0 0 2017 599" fill="none" xmlns="http://www.w3.org/2000/svg">
<g clip-path="url(#clip0_1_2)">
<path d="M2017 0H0V599H2017V0Z" fill="#111111"/>
<path d="M318.377 431.264V274.132H423.132V221.755H266V483.641H423.132V431.264H318.377ZM522.492 274.132H574.869V483.641H627.246V274.132H679.624V221.755H522.492V274.132ZM883.738 483.641H936.116V221.755H778.984V483.641H831.361V274.132H883.738V483.641ZM1140.23 326.509H1192.61V221.755H1035.48V483.641H1087.85V378.887H1140.23V483.641H1192.61V378.887H1140.23V326.509ZM1140.23 326.509H1087.85V274.132H1140.23V326.509ZM1291.97 483.641H1344.34V431.264H1291.97V483.641ZM1443.7 168.854V117H1496.08V169.377L1443.7 168.854ZM1443.7 483.641H1496.08V221.755H1443.7V483.641ZM1595.44 483.641H1752.57V221.755H1595.44V483.641ZM1647.82 431.264V274.132H1700.2V431.264H1647.82Z" fill="#FEFDCA"/>
</g>
<defs>
<clipPath id="clip0_1_2">
<rect width="2017" height="599" fill="white"/>
</clipPath>
</defs>
</svg>
